<svg width="100" height="100" viewBox="0 0 24 24" fill="#f44335" xmlns="http://www.w3.org/2000/svg">
    <path d="M12 2C6.48 2 2 6.48 2 12s4.48 10 10 10c2.7 0 5.8-1.29 6-2H6c.23-.72 3.31-2 6-2 1.67 0 3.2-.52 4.5-1.38.45-.31.75-.8.75-1.37 0-.93-.8-1.69-1.73-1.69-.78 0-1.5.27-2.06.7-.56.43-1.29.69-2.07.69-.55 0-1-.45-1-1s.45-1 1-1c.83 0 1.6-.27 2.24-.74.64-.47 1.05-1.17 1.05-1.96 0-1.38-1.12-2.5-2.5-2.5-.92 0-1.77.24-2.5.66-.66.4-1.26.94-1.72 1.56-.45.63-.76 1.38-.76 2.18v2h2v-2c0-1.34.8-2.53 1.94-3.06C10.12 4.8 11.03 4 12 4c1.66 0 3 1.34 3 3s-1.34 3-3 3c-1.32 0-2.56-.41-3.56-1.11C8.23 8.36 8 7.71 8 7c0-1.1.9-2 2-2s2 .9 2 2c0 .55-.45 1-1 1s-1-.45-1-1c0-.55.45-1 1-1 .55 0 1 .45 1 1s-.45 1-1 1z"/>
  </svg>
  